<svg width="128" height="128" viewBox="0 0 128 128" fill="none" xmlns="http://www.w3.org/2000/svg">
  <rect width="128" height="128" rx="24" fill="#E8F5E9" fill-opacity="0.2"/>
  <path d="M64 28C58.7 28 54.5 32.2 54.5 37.5V46H38.5C35.5 46 33 48.5 33 51.5V89.5C33 92.5 35.5 95 38.5 95H89.5C92.5 95 95 92.5 95 89.5V51.5C95 48.5 92.5 46 89.5 46H73.5V37.5C73.5 32.2 69.3 28 64 28ZM64 32C67.2 32 69.5 34.3 69.5 37.5V46H58.5V37.5C58.5 34.3 60.8 32 64 32ZM38.5 50H89.5C90.3 50 91 50.7 91 51.5V89.5C91 90.3 90.3 91 89.5 91H38.5C37.7 91 37 90.3 37 89.5V51.5C37 50.7 37.7 50 38.5 50ZM64 58C56.3 58 50 64.3 50 72C50 79.7 56.3 86 64 86C71.7 86 78 79.7 78 72C78 64.3 71.7 58 64 58ZM64 62C69.5 62 74 66.5 74 72C74 77.5 69.5 82 64 82C58.5 82 54 77.5 54 72C54 66.5 58.5 62 64 62ZM64 66C60.7 66 58 68.7 58 72C58 75.3 60.7 78 64 78C67.3 78 70 75.3 70 72C70 68.7 67.3 66 64 66Z" fill="#43A047"/>
</svg>
