<svg width="128" height="128" viewBox="0 0 128 128" fill="none" xmlns="http://www.w3.org/2000/svg">
  <rect width="128" height="128" rx="24" fill="#E8F5E9" fill-opacity="0.2"/>
  <path d="M64 28C51.3 28 41 38.3 41 51C41 57.5 43.6 63.4 47.8 67.8L47.9 67.9L37.4 84H52.4L54.9 89.9L65.8 73.1C65.2 73.1 64.6 73 64 73C57.8 73 52.1 70.5 48.2 66.3C44.7 62.5 42.5 57.5 42.5 52C42.5 39.4 52.4 29.5 65 29.5C77.6 29.5 87.5 39.4 87.5 52C87.5 63.7 79 73.1 67.6 74.8L80.1 93.9L82.6 89H97.6L85 70.2C88.1 65.4 90 59.9 90 54C90 41.3 79.7 31 67 31H64V28ZM64 37C54.6 37 47 44.6 47 54C47 58.5 48.5 62.7 51.3 65.7C54.3 69 58.9 71 64 71C69.1 71 73.7 69 76.7 65.7C79.5 62.7 81 58.5 81 54C81 44.6 73.4 37 64 37ZM64 41C71.2 41 77 46.8 77 54C77 57.4 75.9 60.5 73.8 62.8C71.6 65.1 68 67 64 67C60 67 56.4 65.1 54.2 62.8C52.1 60.5 51 57.4 51 54C51 46.8 56.8 41 64 41ZM64 45C59 45 55 49 55 54C55 56.3 55.9 58.4 57.3 59.9C59 61.7 61.4 63 64 63C66.6 63 69 61.7 70.7 59.9C72.1 58.4 73 56.3 73 54C73 49 69 45 64 45ZM44.6 86L51.2 96H38L44.6 86ZM90.4 86L97 96H83.8L90.4 86Z" fill="#CD7F32"/>
</svg>
