<svg width="128" height="128" viewBox="0 0 128 128" fill="none" xmlns="http://www.w3.org/2000/svg">
  <rect width="128" height="128" rx="24" fill="#BBDEFB" fill-opacity="0.2"/>
  <path d="M36 40C33.8 40 32 41.8 32 44V84C32 86.2 33.8 88 36 88H92C94.2 88 96 86.2 96 84V44C96 41.8 94.2 40 92 40H36ZM36 44H92V84H36V44Z" fill="#2196F3"/>
  <path d="M40 48V80H48V48H40Z" fill="#42A5F5"/>
  <path d="M52 48V80H60V48H52Z" fill="#42A5F5"/>
  <path d="M64 48V80H72V48H64Z" fill="#42A5F5"/>
  <path d="M76 48V80H84V48H76Z" fill="#1E88E5"/>
  <path d="M88 48V80H92V48H88Z" fill="#1E88E5"/>
  <path d="M36 44V48H92V44H36Z" fill="#1E88E5"/>
</svg>
