<svg width="128" height="128" viewBox="0 0 128 128" fill="none" xmlns="http://www.w3.org/2000/svg">
  <rect width="128" height="128" rx="24" fill="#FFF8E1" fill-opacity="0.2"/>
  <path d="M64 30C45.3 30 30 45.3 30 64C30 82.7 45.3 98 64 98C82.7 98 98 82.7 98 64C98 45.3 82.7 30 64 30ZM64 34C80.5 34 94 47.5 94 64C94 80.5 80.5 94 64 94C47.5 94 34 80.5 34 64C34 47.5 47.5 34 64 34Z" fill="#FF9800"/>
  <path d="M62 46V50H66V46H62ZM48 54L45.2 57L61.4 71.8L64 74L66.6 71.8L82.8 57L80 54L64 68L48 54ZM62 78V82H66V78H62Z" fill="#FFA726"/>
</svg>
