<svg width="128" height="128" viewBox="0 0 128 128" fill="none" xmlns="http://www.w3.org/2000/svg">
  <rect width="128" height="128" rx="24" fill="#E1BEE7" fill-opacity="0.2"/>
  <path d="M64 32C56.8 32 49.9 34.3 44.2 38.4C42.4 39.7 42.1 42.3 43.4 44.1C44.7 45.9 47.3 46.2 49.1 44.9C53.4 41.8 58.5 40 64 40C77.2 40 88 50.8 88 64C88 77.2 77.2 88 64 88C50.8 88 40 77.2 40 64C40 60.7 40.7 57.6 41.8 54.7C42.6 52.7 41.4 50.3 39.4 49.6C37.4 48.8 35.1 50 34.3 52C32.8 55.8 32 59.8 32 64C32 81.7 46.3 96 64 96C81.7 96 96 81.7 96 64C96 46.3 81.7 32 64 32ZM64 48C55.2 48 48 55.2 48 64C48 72.8 55.2 80 64 80C72.8 80 80 72.8 80 64C80 55.2 72.8 48 64 48ZM64 56C68.4 56 72 59.6 72 64C72 68.4 68.4 72 64 72C59.6 72 56 68.4 56 64C56 59.6 59.6 56 64 56ZM33.8 38.5C32.5 38.5 31.2 39 30.3 40.1C29.2 41.4 29 43.2 29.8 44.7L31.7 48.5C32.8 50.4 35.2 51 37.1 49.9C39 48.8 39.6 46.4 38.5 44.5L36.6 40.7C35.9 39.3 34.9 38.5 33.8 38.5Z" fill="#9C27B0"/>
</svg>
