<svg width="128" height="128" viewBox="0 0 128 128" fill="none" xmlns="http://www.w3.org/2000/svg">
  <rect width="128" height="128" rx="24" fill="#FFF8E1" fill-opacity="0.2"/>
  <path d="M64 32C43.2 32 26 39.6 26 49V79C26 88.4 43.2 96 64 96C84.8 96 102 88.4 102 79V49C102 39.6 84.8 32 64 32ZM64 36C83.4 36 98 43.2 98 49C98 54.8 83.4 62 64 62C44.6 62 30 54.8 30 49C30 43.2 44.6 36 64 36ZM30 55.4C36.4 60 49.2 63 64 63C78.8 63 91.6 60 98 55.4V63C98 68.8 83.4 76 64 76C44.6 76 30 68.8 30 63V55.4ZM30 69.4C36.4 74 49.2 77 64 77C78.8 77 91.6 74 98 69.4V79C98 84.8 83.4 92 64 92C44.6 92 30 84.8 30 79V69.4Z" fill="#FF9800"/>
</svg>
