<svg width="128" height="128" viewBox="0 0 128 128" fill="none" xmlns="http://www.w3.org/2000/svg">
  <rect width="128" height="128" rx="24" fill="#E1F5FE" fill-opacity="0.2"/>
  <path d="M83.9 41.1C77.5 41.1 72 44.1 68.5 48.8C66.1 45.3 62.1 43 57.5 43C49.8 43 43.5 49.3 43.5 57C43.5 57.3 43.5 57.7 43.5 58C35.3 59.9 29 67.1 29 76C29 86 37.1 94 47 94H83.9C95.5 94 105 84.6 105 73C105 61.4 95.5 52 83.9 52C83.7 52 83.4 52 83.2 52C83.7 50.3 84 48.5 84 46.7C84 43.8 83.3 41.6 83.9 41.1Z" fill="#03A9F4"/>
  <path d="M65 65L74 82H56L65 65Z" fill="white"/>
  <path d="M74 58L83 75H65L74 58Z" fill="white"/>
  <path d="M56 58L65 75H47L56 58Z" fill="white"/>
</svg>
