<svg width="128" height="128" viewBox="0 0 128 128" fill="none" xmlns="http://www.w3.org/2000/svg">
  <rect width="128" height="128" rx="24" fill="#E1BEE7" fill-opacity="0.2"/>
  <path d="M83.5 41C77.5 41 72.2 43.8 69 48.2C66.5 44.8 62.5 42.5 58 42.5C50.5 42.5 44.5 48.5 44.5 56C44.5 56.3 44.5 56.7 44.5 57C36.6 58.8 30.5 65.9 30.5 74.5C30.5 84.2 38.3 92 48 92H83.5C94.8 92 104 82.8 104 71.5C104 60.2 94.8 51 83.5 51C83.2 51 82.9 51 82.6 51C83.1 49.4 83.5 47.7 83.5 46C83.5 43.2 82.9 41 83.5 41ZM83.5 45C82.2 45 82.5 49.3 82.5 46C82.5 47.3 82.2 48.6 81.7 49.8L80.9 51.8L83 52.1C83.2 52.1 83.3 52.1 83.5 52.1C94.3 52.1 103 60.8 103 71.6C103 82.4 94.3 91.1 83.5 91.1H48C38.8 91.1 31.5 83.8 31.5 74.6C31.5 66.6 37.1 60 44.8 58.4L46.3 58.1L46.2 56.5C46.1 56.3 46.1 56.2 46.1 56C46.1 49.3 51.4 44 58.1 44C62.4 44 66.3 46.2 68.4 49.6L69.2 51L70.7 50.1C73.6 48.5 77 47.5 80.4 47.5C74.8 47.5 69.3 50.2 67.4 57.2L67.1 58.4L68.2 59.1C71.6 61.2 74 65 74 69.5C74 75.8 68.8 81 62.5 81H52.5V79H62.5C67.7 79 72 74.7 72 69.5C72 64.3 67.7 60 62.5 60C57.3 60 53 64.3 53 69.5V77H49V79H51V81H49V83H58.5V81H56V79H58.5V81H60.5V79H62.5C69.9 79 76 72.9 76 65.5C76 60.9 73.5 56.9 69.9 54.7C71.3 48.8 76.8 45 83.5 45Z" fill="#9C27B0"/>
</svg>
