<svg width="128" height="128" viewBox="0 0 128 128" fill="none" xmlns="http://www.w3.org/2000/svg">
  <rect width="128" height="128" rx="24" fill="#E1BEE7" fill-opacity="0.2"/>
  <path d="M64 28C51.3 28 41 38.3 41 51C41 57.5 43.6 63.4 47.8 67.8L47.9 67.9L37.4 84H52.4L54.9 89.9L65.8 73.1C65.2 73.1 64.6 73 64 73C51.3 73 41 62.7 41 50C41 37.3 51.3 27 64 27C76.7 27 87 37.3 87 50C87 62.7 76.7 73 64 73C63.4 73 62.8 73.1 62.2 73.1L73.1 89.9L75.6 84H90.6L80.1 67.9L80.2 67.8C84.4 63.4 87 57.5 87 51C87 38.3 76.7 28 64 28ZM64 32C74.5 32 83 40.5 83 51C83 61.5 74.5 70 64 70C53.5 70 45 61.5 45 51C45 40.5 53.5 32 64 32ZM64 40C57.9 40 53 44.9 53 51C53 57.1 57.9 62 64 62C70.1 62 75 57.1 75 51C75 44.9 70.1 40 64 40ZM64 44C68 44 71 47 71 51C71 55 68 58 64 58C60 58 57 55 57 51C57 47 60 44 64 44ZM44.6 88L51.2 98H38L44.6 88ZM83.4 88L90 98H76.8L83.4 88Z" fill="#9C27B0"/>
</svg>
