<svg width="128" height="128" viewBox="0 0 128 128" fill="none" xmlns="http://www.w3.org/2000/svg">
  <rect width="128" height="128" rx="24" fill="#E8F5E9" fill-opacity="0.2"/>
  <path d="M64 30C48.6 30 36 36.8 36 45V83C36 91.2 48.6 98 64 98C79.4 98 92 91.2 92 83V45C92 36.8 79.4 30 64 30ZM64 34C78.4 34 88 40.4 88 45C88 49.6 78.4 56 64 56C49.6 56 40 49.6 40 45C40 40.4 49.6 34 64 34ZM64 94C49.6 94 40 87.6 40 83V71.4C45.6 75.8 54.6 78 64 78C73.4 78 82.4 75.8 88 71.4V83C88 87.6 78.4 94 64 94ZM64 74C49.6 74 40 67.6 40 63V51.4C45.6 55.8 54.6 58 64 58C73.4 58 82.4 55.8 88 51.4V63C88 67.6 78.4 74 64 74Z" fill="#4CAF50"/>
  <path d="M70 49.4142L60.5858 40L64.4142 36.1716L78.2426 50L64.4142 63.8284L60.5858 60L70 50.5858V49.4142Z" fill="#2E7D32"/>
</svg>
