<svg width="128" height="128" viewBox="0 0 128 128" fill="none" xmlns="http://www.w3.org/2000/svg">
  <rect width="128" height="128" rx="24" fill="#BBDEFB" fill-opacity="0.2"/>
  <path d="M64 28C45.3 28 30 43.3 30 62C30 80.7 45.3 96 64 96C82.7 96 98 80.7 98 62C98 43.3 82.7 28 64 28ZM64 32C80.5 32 94 45.5 94 62C94 78.5 80.5 92 64 92C47.5 92 34 78.5 34 62C34 45.5 47.5 32 64 32Z" fill="#2196F3"/>
  <path d="M64 44C54.1 44 46 52.1 46 62C46 71.9 54.1 80 64 80C73.9 80 82 71.9 82 62C82 52.1 73.9 44 64 44ZM64 48C71.7 48 78 54.3 78 62C78 69.7 71.7 76 64 76C56.3 76 50 69.7 50 62C50 54.3 56.3 48 64 48Z" fill="#64B5F6"/>
  <path d="M64 54C60.7 54 58 56.7 58 60V64C58 67.3 60.7 70 64 70C67.3 70 70 67.3 70 64V60C70 56.7 67.3 54 64 54ZM64 58C65.1 58 66 58.9 66 60V64C66 65.1 65.1 66 64 66C62.9 66 62 65.1 62 64V60C62 58.9 62.9 58 64 58Z" fill="#1976D2"/>
  <path d="M53.1 38.5L48.8 40.4L61.1 67.2L65.4 65.3L53.1 38.5Z" fill="#1976D2"/>
  <path d="M79.2 41.9L75.4 39.1L52.1 66.9L55.9 69.7L79.2 41.9Z" fill="#1976D2"/>
</svg>
