<svg width="128" height="128" viewBox="0 0 128 128" fill="none" xmlns="http://www.w3.org/2000/svg">
  <rect width="128" height="128" rx="24" fill="#BBDEFB" fill-opacity="0.2"/>
  <path d="M64 40C59.6 40 56 43.6 56 48V52H40C36.7 52 34 54.7 34 58V88C34 91.3 36.7 94 40 94H88C91.3 94 94 91.3 94 88V58C94 54.7 91.3 52 88 52H72V48C72 43.6 68.4 40 64 40ZM64 44C66.2 44 68 45.8 68 48V52H60V48C60 45.8 61.8 44 64 44ZM40 56H88C89.1 56 90 56.9 90 58V68H38V58C38 56.9 38.9 56 40 56ZM38 72H90V88C90 89.1 89.1 90 88 90H40C38.9 90 38 89.1 38 88V72Z" fill="#2196F3"/>
  <path d="M57 78H71C72.1 78 73 77.1 73 76C73 74.9 72.1 74 71 74H57C55.9 74 55 74.9 55 76C55 77.1 55.9 78 57 78Z" fill="#42A5F5"/>
</svg>
