<svg width="128" height="128" viewBox="0 0 128 128" fill="none" xmlns="http://www.w3.org/2000/svg">
  <rect width="128" height="128" rx="24" fill="#E1BEE7" fill-opacity="0.2"/>
  <path d="M28 44C25.8 44 24 45.8 24 48V80C24 82.2 25.8 84 28 84H100C102.2 84 104 82.2 104 80V48C104 45.8 102.2 44 100 44H28ZM28 48H100V80H28V48Z" fill="#9C27B0"/>
  <path d="M32 52V56H36V52H32ZM40 52V56H44V52H40ZM48 52V56H52V52H48ZM56 52V56H60V52H56ZM64 52V56H68V52H64ZM72 52V56H76V52H72ZM80 52V56H84V52H80ZM88 52V56H92V52H88ZM96 52V56H100V52H96ZM32 60V64H40V60H32ZM44 60V64H48V60H44ZM52 60V64H56V60H52ZM60 60V64H64V60H60ZM68 60V64H72V60H68ZM76 60V64H80V60H76ZM84 60V64H88V60H84ZM92 60V64H100V60H92ZM32 68V72H36V68H32ZM40 68V72H44V68H40ZM48 68V72H84V68H48ZM88 68V72H92V68H88ZM96 68V72H100V68H96ZM32 76V80H64V76H32ZM68 76V80H100V76H68Z" fill="#CE93D8"/>
</svg>
