<svg width="128" height="128" viewBox="0 0 128 128" fill="none" xmlns="http://www.w3.org/2000/svg">
  <rect width="128" height="128" rx="24" fill="#E1BEE7" fill-opacity="0.2"/>
  <path d="M64 30C53.5 30 45 38.5 45 49C45 55.3 48.1 60.8 52.9 64.1C43.4 68.2 36.5 77.5 36 88H40C40.5 79.1 47 71.8 55.6 70.3C58.3 71.4 61.1 72 64 72C76 72 86 62 86 50C86 38 76 30 64 30ZM64 34C73.9 34 82 42.1 82 50C82 57.9 73.9 66 64 66C54.1 66 46 57.9 46 50C46 42.1 54.1 34 64 34Z" fill="#9C27B0"/>
  <path d="M96 70C89.4 70 84 75.4 84 82C84 85.7 85.7 89 88.4 91.1C82.4 93.7 78 99.5 78 106H82C82 99.8 87.8 94 94 94C100.2 94 106 99.8 106 106H110C110 99.5 105.6 93.7 99.6 91.1C102.3 89 104 85.7 104 82C104 75.4 98.6 70 92 70H96ZM92 74C96.4 74 100 77.6 100 82C100 86.4 96.4 90 92 90C87.6 90 84 86.4 84 82C84 77.6 87.6 74 92 74Z" fill="#BA68C8"/>
  <path d="M55 93C48.4 93 43 98.4 43 105C43 108.7 44.7 112 47.4 114.1C41.4 116.7 37 122.5 37 129H41C41 122.8 46.8 117 53 117C59.2 117 65 122.8 65 129H69C69 122.5 64.6 116.7 58.6 114.1C61.3 112 63 108.7 63 105C63 98.4 57.6 93 51 93H55ZM51 97C55.4 97 59 100.6 59 105C59 109.4 55.4 113 51 113C46.6 113 43 109.4 43 105C43 100.6 46.6 97 51 97Z" fill="#BA68C8"/>
</svg>
