<svg width="128" height="128" viewBox="0 0 128 128" fill="none" xmlns="http://www.w3.org/2000/svg">
  <rect width="128" height="128" rx="24" fill="#E1F5FE" fill-opacity="0.2"/>
  <path d="M48 30C44.7 30 42 32.7 42 36V92C42 95.3 44.7 98 48 98H80C83.3 98 86 95.3 86 92V36C86 32.7 83.3 30 80 30H48ZM48 34H80C81.1 34 82 34.9 82 36V92C82 93.1 81.1 94 80 94H48C46.9 94 46 93.1 46 92V36C46 34.9 46.9 34 48 34Z" fill="#2196F3"/>
  <path d="M50 38V82H78V38H50ZM54 42H74V78H54V42Z" fill="#42A5F5"/>
  <path d="M64 86C65.7 86 67 87.3 67 89C67 90.7 65.7 92 64 92C62.3 92 61 90.7 61 89C61 87.3 62.3 86 64 86Z" fill="#1E88E5"/>
</svg>
