<svg width="128" height="128" viewBox="0 0 128 128" fill="none" xmlns="http://www.w3.org/2000/svg">
  <rect width="128" height="128" rx="24" fill="#FFF8E1" fill-opacity="0.2"/>
  <path d="M64 28C45.3 28 30 43.3 30 62C30 80.7 45.3 96 64 96H88V92H64C47.5 92 34 78.5 34 62C34 45.5 47.5 32 64 32C80.5 32 94 45.5 94 62V67C94 69.2 92.2 71 90 71C87.8 71 86 69.2 86 67V62C86 49.9 76.1 40 64 40C51.9 40 42 49.9 42 62C42 74.1 51.9 84 64 84C70.1 84 75.6 81.6 79.5 77.5C81.8 80.6 85.7 82.6 90 82.6C98.6 82.6 105.6 75.6 105.6 67V62C105.6 43.3 90.3 28 71.6 28H64ZM64 44C73.9 44 82 52.1 82 62C82 71.9 73.9 80 64 80C54.1 80 46 71.9 46 62C46 52.1 54.1 44 64 44Z" fill="#FF9800"/>
</svg>
