<svg width="128" height="128" viewBox="0 0 128 128" fill="none" xmlns="http://www.w3.org/2000/svg">
  <rect width="128" height="128" rx="24" fill="#E1F5FE" fill-opacity="0.2"/>
  <path d="M64 30C45.3 30 30 45.3 30 64C30 82.7 45.3 98 64 98C82.7 98 98 82.7 98 64C98 45.3 82.7 30 64 30ZM64 34C80.5 34 94 47.5 94 64C94 80.5 80.5 94 64 94C47.5 94 34 80.5 34 64C34 47.5 47.5 34 64 34Z" fill="#01579B"/>
  <path d="M64 40C60.7 40 58 42.7 58 46C58 49.3 60.7 52 64 52C67.3 52 70 49.3 70 46C70 42.7 67.3 40 64 40ZM64 44C65.1 44 66 44.9 66 46C66 47.1 65.1 48 64 48C62.9 48 62 47.1 62 46C62 44.9 62.9 44 64 44Z" fill="#0288D1"/>
  <path d="M46 58C42.7 58 40 60.7 40 64C40 67.3 42.7 70 46 70C49.3 70 52 67.3 52 64C52 60.7 49.3 58 46 58ZM46 62C47.1 62 48 62.9 48 64C48 65.1 47.1 66 46 66C44.9 66 44 65.1 44 64C44 62.9 44.9 62 46 62Z" fill="#0288D1"/>
  <path d="M82 58C78.7 58 76 60.7 76 64C76 67.3 78.7 70 82 70C85.3 70 88 67.3 88 64C88 60.7 85.3 58 82 58ZM82 62C83.1 62 84 62.9 84 64C84 65.1 83.1 66 82 66C80.9 66 80 65.1 80 64C80 62.9 80.9 62 82 62Z" fill="#0288D1"/>
  <path d="M64 76C60.7 76 58 78.7 58 82C58 85.3 60.7 88 64 88C67.3 88 70 85.3 70 82C70 78.7 67.3 76 64 76ZM64 80C65.1 80 66 80.9 66 82C66 83.1 65.1 84 64 84C62.9 84 62 83.1 62 82C62 80.9 62.9 80 64 80Z" fill="#0288D1"/>
  <path d="M64 52V76" stroke="#0288D1" stroke-width="2"/>
  <path d="M49.3 62.3L76.7 52.3" stroke="#0288D1" stroke-width="2"/>
  <path d="M49.3 65.7L76.7 75.7" stroke="#0288D1" stroke-width="2"/>
  <path d="M46 70L64 88" stroke="#0288D1" stroke-width="2"/>
  <path d="M82 70L64 88" stroke="#0288D1" stroke-width="2"/>
  <path d="M46 58L64 40" stroke="#0288D1" stroke-width="2"/>
  <path d="M82 58L64 40" stroke="#0288D1" stroke-width="2"/>
</svg>
