<svg width="128" height="128" viewBox="0 0 128 128" fill="none" xmlns="http://www.w3.org/2000/svg">
  <rect width="128" height="128" rx="24" fill="#FFEBEE" fill-opacity="0.2"/>
  <path d="M64 28L30 42V66C30 82.6 44.9 97.8 64 100C83.1 97.8 98 82.6 98 66V42L64 28ZM64 32.2L94 44.5V66C94 80.6 81.2 93.5 64 95.8C46.8 93.5 34 80.6 34 66V44.5L64 32.2Z" fill="#F44336"/>
  <path d="M64 38L38 49V66C38 78.3 48.9 89.7 64 92C79.1 89.7 90 78.3 90 66V49L64 38ZM64 42.2L86 51.5V66C86 76.4 76.8 85.4 64 87.8C51.2 85.4 42 76.4 42 66V51.5L64 42.2Z" fill="#EF5350"/>
  <path d="M64 54C59.6 54 56 57.6 56 62V64H52V80H76V64H72V62C72 57.6 68.4 54 64 54ZM64 58C66.2 58 68 59.8 68 62V64H60V62C60 59.8 61.8 58 64 58ZM56 68H72V76H56V68Z" fill="#C62828"/>
</svg>
