<svg width="128" height="128" viewBox="0 0 128 128" fill="none" xmlns="http://www.w3.org/2000/svg">
  <rect width="128" height="128" rx="24" fill="#E8F5E9" fill-opacity="0.2"/>
  <path d="M64 28C44.2 28 28 44.2 28 64C28 83.8 44.2 100 64 100C83.8 100 100 83.8 100 64C100 44.2 83.8 28 64 28ZM64 32C81.6 32 96 46.4 96 64C96 81.6 81.6 96 64 96C46.4 96 32 81.6 32 64C32 46.4 46.4 32 64 32Z" fill="#4CAF50"/>
  <path d="M69 57.1L54.9 66L57.1 69L67 62.9V84H71V62.9L80.9 69L83.1 66L69 57.1Z" fill="#66BB6A"/>
  <path d="M45 58L42 56L49 45L52 47L45 58Z" fill="#66BB6A"/>
  <path d="M56 45L58 42L69 49L67 52L56 45Z" fill="#66BB6A"/>
  <path d="M84 47L87 45L94 56L91 58L84 47Z" fill="#66BB6A"/>
  <path d="M76 52L74 49L85 42L87 45L76 52Z" fill="#66BB6A"/>
  <path d="M64 38C62.3 38 61 39.3 61 41C61 42.7 62.3 44 64 44C65.7 44 67 42.7 67 41C67 39.3 65.7 38 64 38Z" fill="#2E7D32"/>
  <path d="M41 61C39.3 61 38 62.3 38 64C38 65.7 39.3 67 41 67C42.7 67 44 65.7 44 64C44 62.3 42.7 61 41 61Z" fill="#2E7D32"/>
  <path d="M87 61C85.3 61 84 62.3 84 64C84 65.7 85.3 67 87 67C88.7 67 90 65.7 90 64C90 62.3 88.7 61 87 61Z" fill="#2E7D32"/>
</svg>
