<svg width="128" height="128" viewBox="0 0 128 128" fill="none" xmlns="http://www.w3.org/2000/svg">
  <rect width="128" height="128" rx="24" fill="#BBDEFB" fill-opacity="0.2"/>
  <path d="M64 30C45.2 30 30 45.2 30 64C30 82.8 45.2 98 64 98C82.8 98 98 82.8 98 64C98 45.2 82.8 30 64 30ZM64 34C80.6 34 94 47.4 94 64C94 80.6 80.6 94 64 94C47.4 94 34 80.6 34 64C34 47.4 47.4 34 64 34Z" fill="#2196F3"/>
  <path d="M64 40C59.3 40 55.1 41.8 52 44.9V48H60V52H52V60H48V52H40V48H48V44.9C51.1 41.8 55.3 40 60 40H64Z" fill="#42A5F5"/>
  <path d="M76 68V80H80V68H88V64H80V56H76V64H68V68H76Z" fill="#1E88E5"/>
  <path d="M60 76H48V80H60V88H64V80H72V76H64V68H60V76Z" fill="#42A5F5"/>
</svg>
