<svg width="128" height="128" viewBox="0 0 128 128" fill="none" xmlns="http://www.w3.org/2000/svg">
  <rect width="128" height="128" rx="24" fill="#E1F5FE" fill-opacity="0.2"/>
  <path d="M28 28H100V100H28V28Z" fill="#3178C6"/>
  <path d="M75.4 83.4V93.8C77.2 94.8 79.3 95.5 81.8 96C84.3 96.5 86.9 96.7 89.6 96.7C92.3 96.7 94.7 96.4 97 95.9C99.3 95.4 101.2 94.5 102.9 93.4C104.5 92.3 105.8 90.9 106.7 89.1C107.6 87.3 108 85.2 108 82.7C108 80.8 107.7 79.2 107.1 77.8C106.5 76.4 105.6 75.2 104.5 74.1C103.4 73 102 72 100.4 71.1C98.8 70.2 97 69.3 95 68.5C93.5 67.9 92.1 67.3 90.9 66.7C89.7 66.1 88.7 65.5 87.8 64.9C86.9 64.3 86.2 63.6 85.7 62.9C85.2 62.2 85 61.4 85 60.4C85 59.5 85.2 58.7 85.7 58C86.1 57.3 86.8 56.7 87.6 56.2C88.4 55.7 89.4 55.3 90.5 55C91.6 54.7 92.9 54.6 94.2 54.6C95.2 54.6 96.3 54.7 97.3 54.9C98.4 55.1 99.4 55.4 100.4 55.8C101.4 56.2 102.3 56.7 103.2 57.3C104.1 57.9 104.9 58.6 105.6 59.4V49.9C103.9 49.1 102 48.5 99.8 48.1C97.6 47.7 95.1 47.5 92.2 47.5C89.5 47.5 87 47.8 84.7 48.3C82.4 48.8 80.5 49.7 78.8 50.8C77.1 51.9 75.8 53.4 74.8 55.2C73.8 57 73.3 59.1 73.3 61.6C73.3 64.8 74.2 67.5 76 69.7C77.8 71.9 80.7 73.8 84.6 75.3C86.1 75.9 87.5 76.5 88.8 77.1C90.1 77.7 91.2 78.3 92.1 78.9C93 79.5 93.7 80.2 94.2 80.9C94.7 81.6 94.9 82.4 94.9 83.3C94.9 84.1 94.7 84.9 94.3 85.6C93.9 86.3 93.3 86.9 92.5 87.4C91.7 87.9 90.8 88.3 89.6 88.6C88.4 88.9 87.1 89 85.6 89C82.7 89 79.9 88.4 77.5 87.3C75 86.1 72.9 84.9 75.4 83.4Z" fill="white"/>
  <path d="M64.4 56.6H41V64.2H48.4V97H57V64.2H64.4V56.6Z" fill="white"/>
</svg>
